<svg width="16" height="17" viewBox="0 0 16 17" fill="none" xmlns="http://www.w3.org/2000/svg">
<path d="M14 4.07357C11.78 3.85357 9.54667 3.74023 7.32 3.74023C6 3.74023 4.68 3.8069 3.36 3.94023L2 4.07357" stroke="#FF7474" stroke-linecap="round" stroke-linejoin="round"/>
<path d="M5.66602 3.39992L5.81268 2.52659C5.91935 1.89326 5.99935 1.41992 7.12602 1.41992H8.87268C9.99935 1.41992 10.086 1.91992 10.186 2.53326L10.3327 3.39992" stroke="#FF7474" stroke-linecap="round" stroke-linejoin="round"/>
<path d="M12.5669 6.17969L12.1336 12.893C12.0603 13.9397 12.0003 14.753 10.1403 14.753H5.86026C4.00026 14.753 3.94026 13.9397 3.86693 12.893L3.43359 6.17969" stroke="#FF7474" stroke-linecap="round" stroke-linejoin="round"/>
<path d="M6.88672 11.0859H9.10672" stroke="#FF7474" stroke-linecap="round" stroke-linejoin="round"/>
<path d="M6.33398 8.41992H9.66732" stroke="#FF7474" stroke-linecap="round" stroke-linejoin="round"/>
</svg>
