<svg width="16" height="17" viewBox="0 0 16 17" fill="none" xmlns="http://www.w3.org/2000/svg">
<path d="M8 1.41992V6.08659L9.33333 4.75326" stroke="#7288FA" stroke-linecap="round" stroke-linejoin="round"/>
<path d="M7.99935 6.08724L6.66602 4.75391" stroke="#7288FA" stroke-width="1.5" stroke-linecap="round" stroke-linejoin="round"/>
<path d="M1.32031 8.75391H4.26031C4.51365 8.75391 4.74031 8.89391 4.85365 9.12057L5.63365 10.6806C5.86031 11.1339 6.32031 11.4206 6.82698 11.4206H9.18031C9.68698 11.4206 10.147 11.1339 10.3736 10.6806L11.1536 9.12057C11.267 8.89391 11.5003 8.75391 11.747 8.75391H14.6536" stroke="#7288FA" stroke-linecap="round" stroke-linejoin="round"/>
<path d="M4.66732 2.83984C2.30732 3.18651 1.33398 4.57318 1.33398 7.41984V10.0865C1.33398 13.4198 2.66732 14.7532 6.00065 14.7532H10.0007C13.334 14.7532 14.6673 13.4198 14.6673 10.0865V7.41984C14.6673 4.57318 13.694 3.18651 11.334 2.83984" stroke="#7288FA" stroke-linecap="round" stroke-linejoin="round"/>
</svg>
