<svg width="6" height="22" viewBox="0 0 6 22" fill="none" xmlns="http://www.w3.org/2000/svg">
<path d="M0.832031 18.5833C0.832031 19.775 1.80703 20.75 2.9987 20.75C4.19036 20.75 5.16536 19.775 5.16536 18.5833C5.16536 17.3917 4.19036 16.4167 2.9987 16.4167C1.80703 16.4167 0.832031 17.3917 0.832031 18.5833Z" stroke="#A3B2C7" stroke-width="1.18182"/>
<path d="M0.832031 3.41536C0.832031 4.60703 1.80703 5.58203 2.9987 5.58203C4.19036 5.58203 5.16536 4.60703 5.16536 3.41536C5.16536 2.2237 4.19036 1.2487 2.9987 1.2487C1.80703 1.2487 0.832031 2.2237 0.832031 3.41536Z" stroke="#A3B2C7" stroke-width="1.18182"/>
<path d="M0.832031 11.0013C0.832031 12.193 1.80703 13.168 2.9987 13.168C4.19036 13.168 5.16536 12.193 5.16536 11.0013C5.16536 9.80964 4.19036 8.83464 2.9987 8.83464C1.80703 8.83464 0.832031 9.80964 0.832031 11.0013Z" stroke="#A3B2C7" stroke-width="1.18182"/>
</svg>
