<svg width="16" height="17" viewBox="0 0 16 17" fill="none" xmlns="http://www.w3.org/2000/svg">
<g clip-path="url(#clip0_6_9478)">
<mask id="path-1-inside-1_6_9478" fill="white">
<path d="M12.3865 10.0483C11.4535 10.0483 10.6183 10.4739 10.0641 11.1411L6.45916 9.09432C6.57427 8.77066 6.63303 8.42966 6.63288 8.08615C6.63302 7.74266 6.57427 7.40168 6.45916 7.07805L10.0638 5.0308C10.618 5.69815 11.4533 6.12389 12.3864 6.12389C14.0506 6.12389 15.4046 4.76941 15.4046 3.10446C15.4047 1.44 14.0507 0.0859375 12.3865 0.0859375C10.722 0.0859375 9.3679 1.44 9.3679 3.10439C9.3679 3.45788 9.42945 3.79715 9.54162 4.1127L5.93674 6.16002C5.38262 5.49302 4.54747 5.06756 3.61472 5.06756C1.95004 5.06756 0.595703 6.42162 0.595703 8.08608C0.595703 9.75047 1.95004 11.1045 3.61472 11.1045C4.54747 11.1045 5.38255 10.6791 5.93667 10.0121L9.54162 12.059C9.42646 12.3827 9.36767 12.7238 9.36783 13.0674C9.36783 14.7318 10.722 16.0859 12.3864 16.0859C14.0507 16.0859 15.4047 14.7317 15.4047 13.0674C15.4047 11.4027 14.0507 10.0483 12.3865 10.0483ZM12.3865 1.1422C13.4683 1.1422 14.3485 2.02242 14.3485 3.10439C14.3485 4.18692 13.4683 5.06756 12.3865 5.06756C11.3045 5.06756 10.4242 4.18692 10.4242 3.10439C10.4242 2.02242 11.3045 1.1422 12.3865 1.1422ZM3.61479 10.0483C2.53254 10.0483 1.65204 9.16804 1.65204 8.08615C1.65204 7.00411 2.53254 6.12389 3.61479 6.12389C4.69661 6.12389 5.57669 7.00411 5.57669 8.08615C5.57669 9.16804 4.69654 10.0483 3.61479 10.0483ZM12.3865 15.0297C11.3045 15.0297 10.4242 14.1494 10.4242 13.0675C10.4242 11.9852 11.3045 11.1046 12.3865 11.1046C13.4683 11.1046 14.3485 11.9852 14.3485 13.0675C14.3485 14.1494 13.4683 15.0297 12.3865 15.0297Z"/>
</mask>
<path d="M12.3865 10.0483C11.4535 10.0483 10.6183 10.4739 10.0641 11.1411L6.45916 9.09432C6.57427 8.77066 6.63303 8.42966 6.63288 8.08615C6.63302 7.74266 6.57427 7.40168 6.45916 7.07805L10.0638 5.0308C10.618 5.69815 11.4533 6.12389 12.3864 6.12389C14.0506 6.12389 15.4046 4.76941 15.4046 3.10446C15.4047 1.44 14.0507 0.0859375 12.3865 0.0859375C10.722 0.0859375 9.3679 1.44 9.3679 3.10439C9.3679 3.45788 9.42945 3.79715 9.54162 4.1127L5.93674 6.16002C5.38262 5.49302 4.54747 5.06756 3.61472 5.06756C1.95004 5.06756 0.595703 6.42162 0.595703 8.08608C0.595703 9.75047 1.95004 11.1045 3.61472 11.1045C4.54747 11.1045 5.38255 10.6791 5.93667 10.0121L9.54162 12.059C9.42646 12.3827 9.36767 12.7238 9.36783 13.0674C9.36783 14.7318 10.722 16.0859 12.3864 16.0859C14.0507 16.0859 15.4047 14.7317 15.4047 13.0674C15.4047 11.4027 14.0507 10.0483 12.3865 10.0483ZM12.3865 1.1422C13.4683 1.1422 14.3485 2.02242 14.3485 3.10439C14.3485 4.18692 13.4683 5.06756 12.3865 5.06756C11.3045 5.06756 10.4242 4.18692 10.4242 3.10439C10.4242 2.02242 11.3045 1.1422 12.3865 1.1422ZM3.61479 10.0483C2.53254 10.0483 1.65204 9.16804 1.65204 8.08615C1.65204 7.00411 2.53254 6.12389 3.61479 6.12389C4.69661 6.12389 5.57669 7.00411 5.57669 8.08615C5.57669 9.16804 4.69654 10.0483 3.61479 10.0483ZM12.3865 15.0297C11.3045 15.0297 10.4242 14.1494 10.4242 13.0675C10.4242 11.9852 11.3045 11.1046 12.3865 11.1046C13.4683 11.1046 14.3485 11.9852 14.3485 13.0675C14.3485 14.1494 13.4683 15.0297 12.3865 15.0297Z" fill="#333F4E"/>
<path d="M10.0641 11.1411L8.95156 13.1006L10.592 14.032L11.7975 12.5809L10.0641 11.1411ZM6.45916 9.09432L4.33608 8.33923L3.70258 10.1205L5.3466 11.0539L6.45916 9.09432ZM6.63288 8.08615L4.37952 8.08523L4.37952 8.08711L6.63288 8.08615ZM6.45916 7.07805L5.34634 5.11865L3.70266 6.05216L4.33608 7.83314L6.45916 7.07805ZM10.0638 5.0308L11.7975 3.59131L10.592 2.13944L8.95101 3.0714L10.0638 5.0308ZM15.4046 3.10446L13.1512 3.10427V3.10446H15.4046ZM9.54162 4.1127L10.6544 6.07211L12.2979 5.13874L11.6648 3.3579L9.54162 4.1127ZM5.93674 6.16002L4.20347 7.59995L5.40904 9.05112L7.04954 8.11943L5.93674 6.16002ZM5.93667 10.0121L7.04925 8.0526L5.40892 7.12125L4.20347 8.57211L5.93667 10.0121ZM9.54162 12.059L11.6647 12.8142L12.2983 11.0329L10.6542 10.0994L9.54162 12.059ZM9.36783 13.0674L11.6212 13.0674L11.6212 13.0664L9.36783 13.0674ZM15.4047 13.0674L13.1513 13.0673V13.0674H15.4047ZM12.3865 7.79497C10.7526 7.79497 9.29294 8.54296 8.33079 9.70121L11.7975 12.5809C11.9437 12.4049 12.1544 12.3017 12.3865 12.3017V7.79497ZM11.1767 9.18152L7.57172 7.13476L5.3466 11.0539L8.95156 13.1006L11.1767 9.18152ZM8.58225 9.8494C8.78368 9.28303 8.8865 8.68631 8.88625 8.08518L4.37952 8.08711C4.37956 8.17302 4.36486 8.25829 4.33608 8.33923L8.58225 9.8494ZM8.88625 8.08707C8.88649 7.48598 8.78367 6.8893 8.58225 6.32296L4.33608 7.83314C4.36486 7.91407 4.37956 7.99933 4.37952 8.08523L8.88625 8.08707ZM7.57199 9.03745L11.1767 6.9902L8.95101 3.0714L5.34634 5.11865L7.57199 9.03745ZM8.3302 6.47029C9.29232 7.62901 10.7523 8.37726 12.3864 8.37726V3.87053C12.1543 3.87053 11.9436 3.76728 11.7975 3.59131L8.3302 6.47029ZM12.3864 8.37726C15.2959 8.37726 17.658 6.01309 17.658 3.10446H13.1512C13.1512 3.52573 12.8053 3.87053 12.3864 3.87053V8.37726ZM17.658 3.10465C17.6582 0.195675 15.2954 -2.16742 12.3865 -2.16742V2.3393C12.8061 2.3393 13.1513 2.68432 13.1512 3.10427L17.658 3.10465ZM12.3865 -2.16742C9.47764 -2.16742 7.11454 0.195396 7.11454 3.10439H11.6213C11.6213 2.6846 11.9664 2.3393 12.3865 2.3393V-2.16742ZM7.11454 3.10439C7.11454 3.7213 7.22223 4.31557 7.41844 4.86749L11.6648 3.3579C11.6367 3.27874 11.6213 3.19446 11.6213 3.10439H7.11454ZM8.42881 2.15328L4.82393 4.2006L7.04954 8.11943L10.6544 6.07211L8.42881 2.15328ZM7.67 4.72008C6.70785 3.56192 5.2482 2.8142 3.61472 2.8142V7.32092C3.84673 7.32092 4.05739 7.42412 4.20347 7.59995L7.67 4.72008ZM3.61472 2.8142C0.705923 2.8142 -1.65766 5.17674 -1.65766 8.08608H2.84907C2.84907 7.66649 3.19417 7.32092 3.61472 7.32092V2.8142ZM-1.65766 8.08608C-1.65766 10.9954 0.705957 13.3579 3.61472 13.3579V8.85117C3.19413 8.85117 2.84907 8.50556 2.84907 8.08608H-1.65766ZM3.61472 13.3579C5.24824 13.3579 6.70776 12.6101 7.66986 11.4522L4.20347 8.57211C4.05734 8.74799 3.84669 8.85117 3.61472 8.85117V13.3579ZM4.82408 11.9717L8.42903 14.0185L10.6542 10.0994L7.04925 8.0526L4.82408 11.9717ZM7.41859 11.3037C7.21706 11.8703 7.11419 12.4672 7.11447 13.0685L11.6212 13.0664C11.6212 12.9805 11.6359 12.8952 11.6647 12.8142L7.41859 11.3037ZM7.11447 13.0674C7.11447 15.9764 9.47757 18.3392 12.3864 18.3392V13.8325C11.9664 13.8325 11.6212 13.4872 11.6212 13.0674L7.11447 13.0674ZM12.3864 18.3392C15.2953 18.3392 17.658 15.9761 17.658 13.0674H13.1513C13.1513 13.4874 12.806 13.8325 12.3864 13.8325V18.3392ZM17.658 13.0675C17.6581 10.1589 15.2958 7.79497 12.3865 7.79497V12.3017C12.8056 12.3017 13.1513 12.6466 13.1513 13.0673L17.658 13.0675ZM12.3865 3.39556C12.2236 3.39556 12.0951 3.26671 12.0951 3.10439H16.6018C16.6018 0.778134 14.713 -1.11116 12.3865 -1.11116V3.39556ZM12.0951 3.10439C12.0951 2.94368 12.2226 2.8142 12.3865 2.8142V7.32092C14.7141 7.32092 16.6018 5.43015 16.6018 3.10439H12.0951ZM12.3865 2.8142C12.5498 2.8142 12.6775 2.94331 12.6775 3.10439H8.1708C8.1708 5.43052 10.0591 7.32092 12.3865 7.32092V2.8142ZM12.6775 3.10439C12.6775 3.26708 12.5488 3.39556 12.3865 3.39556V-1.11116C10.0601 -1.11116 8.1708 0.777765 8.1708 3.10439H12.6775ZM3.61479 7.79497C3.77646 7.79497 3.9054 7.92297 3.9054 8.08615H-0.601325C-0.601325 10.4131 1.28862 12.3017 3.61479 12.3017V7.79497ZM3.9054 8.08615C3.9054 8.24919 3.77646 8.37726 3.61479 8.37726V3.87053C1.28862 3.87053 -0.601325 5.75904 -0.601325 8.08615H3.9054ZM3.61479 8.37726C3.45175 8.37726 3.32333 8.24824 3.32333 8.08615H7.83005C7.83005 5.75998 5.94148 3.87053 3.61479 3.87053V8.37726ZM3.32333 8.08615C3.32333 7.92386 3.45173 7.79497 3.61479 7.79497V12.3017C5.94135 12.3017 7.83005 10.4122 7.83005 8.08615H3.32333ZM12.3865 12.7763C12.5489 12.7763 12.6775 12.9048 12.6775 13.0675H8.1708C8.1708 15.394 10.0601 17.283 12.3865 17.283V12.7763ZM12.6775 13.0675C12.6775 13.229 12.5496 13.358 12.3865 13.358V8.85124C10.0593 8.85124 8.1708 10.7413 8.1708 13.0675H12.6775ZM12.3865 13.358C12.2228 13.358 12.0951 13.2287 12.0951 13.0675H16.6018C16.6018 10.7417 14.7138 8.85124 12.3865 8.85124V13.358ZM12.0951 13.0675C12.0951 12.9051 12.2236 12.7763 12.3865 12.7763V17.283C14.7131 17.283 16.6018 15.3936 16.6018 13.0675H12.0951Z" fill="#F9AB72" mask="url(#path-1-inside-1_6_9478)"/>
</g>
<defs>
<clipPath id="clip0_6_9478">
<rect width="16" height="16" fill="white" transform="translate(0 0.0859375)"/>
</clipPath>
</defs>
</svg>
